<?xml version="1.0" encoding="utf-8"?>
<!-- Generator: Adobe Illustrator 24.3.0, SVG Export Plug-In . SVG Version: 6.00 Build 0)  -->
<svg version="1.1" id="Layer_1" xmlns="http://www.w3.org/2000/svg" xmlns:xlink="http://www.w3.org/1999/xlink" x="0px" y="0px"
	 viewBox="0 0 182.1 142.9" style="enable-background:new 0 0 182.1 142.9;" xml:space="preserve">
<style type="text/css">
	.st0{fill:#0097CF;}
</style>
<g>
	<path class="st0" d="M28,93.6h-3.3c0.2-7.3,1.5-13.3,3.7-18.3h27.4v18.3h-3.4v3h26.7v-3h-3.3v-46c2.9,2.6,6.2,5.2,9.8,7.7
		c10.3,7,20.7,17.1,21.2,38.3h-3.3v3h26.7v-3h-3.4V75.3h27.4c2.1,5,3.5,11,3.7,18.3h-3.3v3h26.7v-3h-3.4
		c-0.5-31-17.2-46.1-29.9-54.7c-12.9-8.9-19.2-18.6-21.2-22.4V3.9h3.4v-3h-26.7v3h3.3v42.8c-3.3-3.1-6.7-5.7-9.9-7.8
		c-12.8-8.8-19.1-18.5-21.2-22.3V3.9h3.3v-3H52.4v3h3.4v12.6c-2.1,3.7-8.3,13.5-21.2,22.4C21.9,47.5,5.2,62.6,4.7,93.6H1.3v3H28
		V93.6z M136.7,55.3c6,4.1,12,9.2,16.1,16.9h-26V47.6C129.7,50.2,133,52.8,136.7,55.3z M45.9,55.3c3.7-2.5,7-5.2,9.9-7.8v24.7h-26
		C33.9,64.6,39.9,59.4,45.9,55.3z"/>
	<path class="st0" d="M154.3,16.7l-4,8.1c-0.1,0.3-0.1,0.5,0.1,0.7c0.2,0.2,0.5,0.3,0.7,0.1l8.3-3.9l3.6,7.5
		c0.1,0.2,0.3,0.4,0.6,0.4s0.5-0.1,0.6-0.4l3.2-6.8l7.1,2.2c0.2,0.1,0.5,0,0.7-0.2s0.2-0.4,0.1-0.7l-2.4-6.7l6.3-6.3
		c0.2-0.2,0.2-0.5,0.1-0.7s-0.3-0.4-0.6-0.4H171l3.3-7.1c0.1-0.3,0.1-0.5-0.1-0.7s-0.5-0.2-0.7-0.1l-8.5,4.3l-5.1-5.9
		C159.6,0,159.3-0.1,159,0c-0.3,0.1-0.4,0.3-0.4,0.6l-0.3,7.5l-8.2,0.7c-0.2,0-0.4,0.2-0.5,0.4s-0.1,0.5,0.1,0.6L154.3,16.7z"/>
	<g>
		<path class="st0" d="M22.2,117.1c0.1-1.6,0.1-2.6,0.1-3c0-1.4-0.1-2.7-0.3-3.8c-0.1-0.7-0.8-1.1-1.9-1.1c-0.8,0-1.3,0.2-1.4,0.7
			c-0.8,4.7-2.6,11.2-5.6,19.3c-0.9-1.3-1.5-2.9-1.8-4.8c-0.2-1.7-0.5-3.5-0.8-5.2c0-1-0.1-2.5-0.4-4.5s-0.4-3.4-0.4-4.3
			c-0.4-0.4-1.1-0.6-2.2-0.6c-0.4,0-0.7,0.2-0.8,0.6c-0.2,0.6-0.4,0.9-0.5,1c-0.7,5.5-1.4,9.4-2,11.6c-1.9,6.3-2.9,9.8-3.2,10.6
			c-0.7,1.7-1,2.7-1,2.9c0,0.8,0.4,1.4,1.3,1.8c1.1,0.5,1.7,0.6,1.9,0.1c1.5-3.1,2.9-7.9,4.2-14.3c0.3,0.7,0.8,2.1,1.2,4.1
			c0.5,1.9,0.9,3.2,1.5,4.1c0.8,1.3,1.9,2.1,3.4,2.5c0.7,0.1,1.3-0.3,1.8-1.3c0.1-0.2,0.5-1.1,1-2.6c0.9-2.7,1.6-4.8,2-6.1
			c0.1,0.8,0.3,2.3,0.3,4.5c0.1,1.9,0.2,3.5,0.5,4.5c0.3,1.2,0.8,2,1.4,2.5c0.7,0.6,1.4,0.9,2.1,0.9c1-0.1,1.5-0.4,1.3-1
			c-0.9-4.4-1.5-9.8-1.8-16.2C22.1,119.4,22.1,118.3,22.2,117.1z"/>
		<path class="st0" d="M40.5,114.6c-0.2-1.4-0.4-2.8-0.6-4.2c-0.3-1.6-0.9-2.9-1.8-3.7c-0.4-0.3-0.8-0.5-1.3-0.5
			c-0.7,0-1.1,0.2-1.3,0.7c-0.9,2.2-1.9,5.2-3,9.3c-1.3,4.6-2.3,7.8-2.9,9.5c-0.1,0.2-0.4,0.4-1,0.5c-0.6,0.1-0.9,0.3-1.1,0.5
			s-0.2,0.4-0.2,0.5c0,0.2,0.2,0.5,0.7,0.9c0.5,0.4,0.7,0.7,0.7,1c-0.1,1.1-0.7,2.8-1.7,5.3c-0.9,2.2-1.2,3.9-1.1,5.2
			c0.1,0.6,0.7,1.2,1.8,1.5c0.9,0.3,1.5,0.1,1.7-0.5c0.5-1.3,1.1-3.2,1.7-5.7c0.6-2.7,1.1-4.6,1.5-5.6c0.8-0.6,1.8-1.1,3.1-1.2
			c1.2-0.1,2.3-0.2,3.5-0.3c0.7,1.7,1.2,3.9,1.7,6.5c0.4,2.4,1.5,3.7,3.2,4c0.2,0,0.6-0.2,1.2-0.7s0.9-1.1,0.9-1.8
			c0-0.4-0.1-0.9-0.3-1.4C44,129.3,42.2,122.6,40.5,114.6z M34,124.9c0.8-2.8,1.6-5.7,2.7-8.5c0.3,1.4,0.6,2.7,1,4.1
			c0.3,1.6,0.6,3,0.7,4.3C36,124.7,34.6,124.8,34,124.9z"/>
		<path class="st0" d="M69.8,107.7c0.8-0.2,1.4-0.9,1.7-2.1c0-0.6-0.4-0.9-1.3-0.9c0.1-0.5-0.2-0.7-0.7-0.7c-0.8-0.1-1.8,0-3,0.3
			c-1.6,0.4-2.6,0.7-3,0.7c-1.4,0.4-2.8,0.6-4.3,0.6c-1.5,0-2.8-0.2-4-0.6c-1.4,0.8-3.6,1.3-6.4,1.6c-3.3,0.3-5.4,0.6-6.5,1
			c-0.2,0.3-0.3,0.5-0.3,0.8c0,0,0.2,0.5,0.6,1.3c1,0.9,2.3,1.3,4,1.3c0.7,0,2-0.1,3.8-0.4c1.6-0.2,2.8-0.3,3.7-0.3
			c0,2.4-0.1,5.8-0.4,10.4c-0.3,4.7-0.5,8.2-0.5,10.4c0,1.4,0,2.6,0.1,3.9c0.1,1,0.4,1.8,1,2.6c0.6,0.8,1.4,1.2,2.4,1.2
			c0.5,0,0.8-0.2,1-0.7c0.1-0.3,0.1-0.8,0.1-1.4c-0.1-2-0.1-4.1-0.1-6.1c0-5.5,0.3-12.3,1-20.6C64,108.9,67.7,108.2,69.8,107.7z"/>
		<path class="st0" d="M85.3,110c-0.3,0-0.5-0.1-0.7-0.3s-0.3-0.3-0.4-0.3c-1.1-0.3-1.9,0-2.3,0.8c-1.4,3-2.8,6.6-4.1,10.8
			c-1.1,3.7-2.2,7.4-3.3,11.1c-0.8-3.1-1.6-6.2-2.4-9.3c-1-3.6-2-6.6-3.1-9.1c-1.2-0.9-2.1-1.4-2.5-1.4c-0.2,0-0.5,0.1-0.7,0.2
			c-0.3,0-0.6,0.4-1,1.1c1.5,3.2,3,7.9,4.4,14c1.6,6.4,2.9,11.1,4.1,13.9c0.7,0.4,1.2,0.7,1.6,0.7c0.4,0,0.7-0.1,0.9-0.4
			c0.8-2,1.6-5,2.4-8.9c0.9-4.1,1.6-7.1,2.3-8.8c2.2-6,3.8-10.2,5-12.4c0.2-0.3,0.2-0.6,0.2-0.9C85.7,110.2,85.5,110,85.3,110z"/>
		<path class="st0" d="M93.5,105.8c0-0.1,0-0.4,0-0.8c0-0.4-0.7-1.2-2.4-1.1c-0.8,0.1-1.4,0.4-1.7,1.1c0.1,1,0.1,2,0.1,3.1
			c0,2.7-0.3,6.7-0.8,12.2c-0.6,5.4-0.8,9.5-0.8,12.2c0,1.6,0.1,3.1,0.2,4.5c0.1,1.4,0.9,2.1,2.4,2.2c1,0,1.7-0.5,2-1.6
			c0-1-0.1-2-0.1-3.1c0-2.8,0.2-7,0.7-12.5s0.7-9.6,0.7-12.3c0-1.2,0-2.4-0.1-3.6C93.6,106,93.6,105.9,93.5,105.8z"/>
		<path class="st0" d="M116.4,109.1c-1.2-0.7-2.3-1.1-3.2-1.1c-0.2,0-0.4,0-0.6,0.1c-1.7,0.4-3.3,0.8-5,1.3
			c-1.9,0.5-3.5,1.1-4.8,1.7c-1.1,0.4-2.2,0.9-3.3,1.3c-1.2,0.6-1.8,1.4-1.8,2.3c0,1.1,0.9,1.8,2.8,2.2c-0.2,3-0.3,4.6-0.4,4.9
			c-0.1,0.3-0.3,0.5-0.8,0.8c-0.5,0.3-0.8,0.5-0.8,0.8c-0.1,0.6,0.3,1.3,1.3,1.9c-0.3,2.3-0.3,5,0,8c0.1,1,0.5,1.9,1.3,2.8
			c0.8,0.8,1.7,1.4,2.6,1.6c3,0.8,6.6,1.1,10.7,1c0.5,0,1-0.3,1.3-0.7s0.4-1,0.3-1.5c-0.3-1.6-0.9-2.4-1.9-2.1
			c-0.2,0-0.5,0.1-0.8,0.4c-0.3,0.3-0.6,0.4-0.9,0.4c-4,0.2-6.7-0.3-8.3-1.4c-0.3-0.6-0.4-1.4-0.4-2.4c0-1.5,0.3-3.5,1-6
			c0.9-0.4,2.2-0.6,3.8-0.6c1.9,0,3.2-0.1,3.9-0.3c0.4,0,0.8-0.1,1-0.4c0.4-0.4,0.7-0.7,0.7-0.7c0.2-0.1,0.4-0.3,0.4-0.6
			c0-0.2-0.2-0.7-0.7-1.3c-0.7-0.4-1.5-0.6-2.5-0.6c-0.5,0-1.3,0.1-2.4,0.3c-1.1,0.2-1.9,0.3-2.4,0.3c-0.7,0-1.3-0.1-1.9-0.3
			c0.1-3.1,0.4-5.1,0.7-5.9c1.3-0.5,3.1-1.1,5.6-1.8s4.3-1.3,5.6-1.8c0.2-0.2,0.4-0.4,0.4-0.7c0-0.2-0.1-0.4-0.2-0.8
			C116.5,109.5,116.4,109.2,116.4,109.1z"/>
		<path class="st0" d="M140.6,105.2c-0.1,0-0.4-0.1-1-0.3c-0.4-0.1-0.8-0.2-1.1-0.2c-0.9,0-1.4,0.3-1.5,1c-1.1,9.2-1.9,16-2.4,20.6
			c-1.3-2.3-2.7-5.7-4.2-10.2c-1.6-4.7-2.9-8.1-4-10.1c-1.1-0.9-2-1.3-2.6-1.3c-1.2,0-1.9,0.4-1.9,1.1c-0.1,0.9-0.4,5.5-1.1,13.7
			c-0.4,5.4-0.6,9.9-0.6,13.6c0,2.1,0.1,4.1,0.2,6c0,0.6,0.1,1.1,0.1,1.7c0.1,0.7,0.4,1.1,0.8,1.2c0.1,0.1,0.5,0.2,1,0.5
			c0.4,0.2,0.7,0.3,0.9,0.3c0.3,0,0.5-0.1,0.8-0.4c0.6-0.4,0.9-1.1,0.9-2.1c-0.1-2.7-0.2-5.3-0.2-7.9c0-5.4,0.3-10.5,0.9-15.4
			c0.1-0.5,0.2-0.7,0.5-0.7c0.1,0,0.2,0.1,0.3,0.3c3.2,9.1,6,15.8,8.1,20.1c0.7,1.4,1.6,2.1,2.7,2.1c0.5,0,1-0.2,1.5-0.6
			c0.4-0.4,0.6-0.9,0.6-1.4c-0.1-1.2-0.1-2.3-0.1-3.5c0-3.6,0.3-8.2,0.9-13.7c0.4-4.6,0.9-9.2,1.4-13.8
			C141.2,105.6,140.9,105.4,140.6,105.2z"/>
		<path class="st0" d="M155.4,129.8c-2.1-1.3-4.3-2.5-6.4-3.8c0.9-1.4,3-3.8,6.3-7.2c2.8-2.9,4.7-5.4,5.6-7.5
			c-0.1-0.9-0.8-1.4-2.1-1.4c-0.5,0-0.9,0.1-1.3,0.3c-1.5,1.8-3,3.5-4.6,5.3c-1.8,2.1-3.4,3.8-4.8,5c0.1-2.7-0.1-6.4-0.7-11.1
			c0-0.4-0.3-0.7-0.8-0.9c-0.5-0.2-0.9-0.3-1.4-0.5c-0.4,0.1-0.9,0.1-1.3,0.2c-0.6,0.1-0.8,0.4-0.7,0.8c0.5,2.7,0.7,5.8,0.7,9.4
			c0,1.2,0,3-0.1,5.3c-0.1,2.4-0.1,4.2-0.1,5.4c0,3.3,0.2,6.2,0.6,8.6c0.1,0.9,0.6,1.5,1.5,1.8c0.1,0.2,0.4,0.4,0.8,0.4
			c0.4,0,0.7-0.1,0.9-0.2c0.7-0.3,1.1-0.9,1.1-1.7c0-0.2,0-0.6-0.1-1.2s-0.1-0.9-0.1-1.2c-0.1-2.4-0.1-4.2-0.3-5.4
			c4.8,2.9,8.4,5,10.6,6.4c0.2,0.1,0.4,0.2,0.6,0.2s0.4-0.1,0.7-0.3c0.3-0.2,0.6-0.3,0.8-0.3c0.1,0,0.2,0,0.4,0.1
			c0.3-0.8,0.4-1.3,0.4-1.5c0-0.3-0.1-0.6-0.3-0.7C159.8,132.7,157.8,131.3,155.4,129.8z"/>
		<path class="st0" d="M180.1,116.8c-0.8-1.4-2.1-2.5-3.9-3.1c-2.3-0.8-3.8-1.4-4.3-1.8s-1.1-0.7-1.7-0.7c-1.1,0-2.2,0.6-3.4,1.8
			c-1,1-1.9,2.2-2.6,3.6c-1.7,3.3-2.5,6.3-2.5,9.1c0,2.6,0.8,4.7,2.2,6.3c2.2,2.4,4.4,3.6,6.6,3.6c0.5,0,1-0.1,1.5-0.2
			c4.1-1,7.3-4,9.6-9.1c0.4-0.8,0.6-1.8,0.6-2.8C182.1,121.6,181.4,119.4,180.1,116.8z M175,128.3c-1.6,2.1-3.2,3.2-4.9,3.2
			c-0.7,0-1.6-0.8-2.7-2.4c-0.8-1.2-1.1-2.5-1.1-4.2c0-2.4,0.7-4.2,2-5.3c0.1-0.1,0.2-0.1,0.3-0.1c0.1,0,0.5,0.2,1,0.5
			c0.5,0.3,0.9,0.5,1.1,0.3c0.4-0.2,1-0.7,1.8-1.6c0.7-0.8,1.3-1.2,1.7-1.2c0.1,0,0.3,0,0.5,0.1c1.2,0.5,2,2.2,2.2,5
			C177.1,124.4,176.4,126.3,175,128.3z"/>
		<path class="st0" d="M92.7,92.5c-0.9-0.1-1.8-0.2-2.7-0.2c-0.5-0.1-1,0.2-1.5,0.7s-0.7,1-0.7,1.6c0,0.9,0.4,1.8,1.3,2.6
			c0.9,0.8,1.8,1.3,2.7,1.3c1.2,0.1,2-0.2,2.6-0.8c0.6-0.6,0.7-1.8,0.3-3.5C94.4,93.3,93.7,92.8,92.7,92.5z"/>
	</g>
</g>
</svg>
