<?xml version="1.0" encoding="utf-8"?>
<!-- Generator: Adobe Illustrator 24.3.0, SVG Export Plug-In . SVG Version: 6.00 Build 0)  -->
<svg version="1.1" id="Layer_1" xmlns="http://www.w3.org/2000/svg" xmlns:xlink="http://www.w3.org/1999/xlink" x="0px" y="0px"
	 viewBox="0 0 182.08 142.88" style="enable-background:new 0 0 182.08 142.88;" xml:space="preserve">
<style type="text/css">
	.st0{fill:#2E3192;}
	.st1{fill:#6D6E71;}
</style>
<g>
	<path class="st0" d="M27.99,93.61h-3.31c0.16-7.32,1.53-13.32,3.66-18.31h27.43v18.31h-3.36v3h26.67v-3h-3.31V47.63
		c2.89,2.58,6.15,5.19,9.84,7.72c10.25,7.04,20.72,17.1,21.2,38.26h-3.28v3h26.67v-3h-3.36V75.3h27.43c2.14,5,3.5,10.99,3.66,18.31
		h-3.31v3h26.67v-3h-3.36c-0.53-30.98-17.24-46.07-29.87-54.74c-12.9-8.86-19.16-18.65-21.22-22.36V3.94h3.36v-3h-26.67v3h3.31V46.7
		c-3.34-3.1-6.74-5.67-9.89-7.83c-12.79-8.78-19.05-18.47-21.16-22.26V3.94h3.31v-3H52.41v3h3.36v12.57
		C53.71,20.22,47.45,30,34.55,38.87C21.92,47.54,5.21,62.63,4.68,93.61H1.32v3h26.67V93.61z M136.71,55.35
		c5.96,4.1,12,9.22,16.1,16.94h-26V47.58C129.73,50.18,133.01,52.81,136.71,55.35z M45.87,55.35c3.71-2.55,6.99-5.17,9.89-7.77V72.3
		h-26C33.87,64.57,39.91,59.45,45.87,55.35z"/>
	<path class="st0" d="M154.25,16.66l-3.97,8.1c-0.12,0.25-0.07,0.55,0.12,0.74c0.19,0.2,0.49,0.25,0.74,0.13l8.32-3.94l3.58,7.54
		c0.11,0.23,0.34,0.37,0.59,0.37c0.25,0,0.48-0.15,0.59-0.37l3.21-6.77l7.11,2.23c0.23,0.07,0.49,0.01,0.66-0.17
		c0.17-0.18,0.23-0.44,0.15-0.67l-2.35-6.71l6.26-6.26c0.19-0.19,0.24-0.47,0.14-0.71c-0.1-0.24-0.34-0.4-0.6-0.4h-7.84l3.26-7.1
		c0.12-0.25,0.06-0.55-0.14-0.74c-0.2-0.19-0.5-0.24-0.74-0.11l-8.49,4.29l-5.11-5.89c-0.17-0.2-0.45-0.27-0.7-0.19
		c-0.25,0.09-0.42,0.32-0.44,0.59l-0.34,7.54l-8.19,0.69c-0.23,0.02-0.43,0.16-0.53,0.37c-0.1,0.21-0.08,0.46,0.05,0.65
		L154.25,16.66z"/>
	<g>
		<path class="st1" d="M22.19,117.09c0.06-1.56,0.09-2.56,0.09-3.02c0-1.43-0.11-2.7-0.32-3.8c-0.15-0.73-0.79-1.1-1.92-1.1
			c-0.79,0-1.25,0.24-1.37,0.73c-0.79,4.73-2.65,11.16-5.58,19.3c-0.89-1.25-1.49-2.85-1.83-4.8c-0.24-1.74-0.5-3.46-0.78-5.17
			c0-1.01-0.14-2.49-0.43-4.46c-0.29-1.97-0.43-3.39-0.43-4.28c-0.4-0.4-1.11-0.59-2.15-0.59c-0.4,0-0.67,0.21-0.82,0.64
			c-0.24,0.58-0.4,0.9-0.46,0.96c-0.7,5.52-1.37,9.38-2.01,11.57c-1.86,6.31-2.93,9.83-3.2,10.57C0.32,135.33,0,136.31,0,136.58
			c0,0.79,0.44,1.4,1.33,1.83c1.07,0.52,1.71,0.55,1.92,0.09c1.49-3.14,2.9-7.9,4.21-14.27c0.34,0.7,0.75,2.07,1.24,4.12
			c0.46,1.86,0.94,3.22,1.46,4.07c0.79,1.31,1.92,2.14,3.38,2.47c0.73,0.09,1.34-0.33,1.83-1.28c0.12-0.21,0.46-1.07,1.01-2.56
			c0.91-2.71,1.57-4.76,1.97-6.13c0.15,0.82,0.26,2.33,0.32,4.53c0.06,1.95,0.24,3.46,0.55,4.53c0.34,1.16,0.79,2,1.37,2.52
			c0.7,0.61,1.39,0.9,2.06,0.87c1.01-0.06,1.45-0.4,1.33-1.01c-0.91-4.36-1.51-9.76-1.78-16.19
			C22.15,119.37,22.15,118.35,22.19,117.09z"/>
		<path class="st1" d="M40.49,114.59c-0.17-1.4-0.36-2.8-0.56-4.19c-0.27-1.64-0.89-2.86-1.84-3.68c-0.38-0.31-0.8-0.46-1.28-0.46
			c-0.65,0-1.07,0.24-1.28,0.72c-0.89,2.15-1.89,5.23-3.02,9.26c-1.33,4.64-2.3,7.81-2.92,9.51c-0.07,0.24-0.38,0.42-0.95,0.54
			c-0.56,0.12-0.92,0.27-1.07,0.46c-0.15,0.19-0.23,0.37-0.23,0.54c0,0.2,0.24,0.49,0.72,0.87c0.48,0.38,0.7,0.72,0.66,1.02
			c-0.1,1.06-0.66,2.83-1.69,5.32c-0.85,2.18-1.23,3.92-1.13,5.22c0.07,0.65,0.67,1.16,1.79,1.54c0.89,0.27,1.47,0.1,1.74-0.51
			c0.54-1.3,1.11-3.19,1.69-5.68c0.61-2.69,1.11-4.57,1.48-5.63c0.75-0.65,1.79-1.06,3.12-1.23c1.16-0.1,2.32-0.2,3.48-0.31
			c0.65,1.74,1.21,3.9,1.69,6.5c0.44,2.39,1.5,3.73,3.17,4.04c0.2,0.03,0.6-0.21,1.18-0.72c0.58-0.51,0.87-1.11,0.87-1.79
			c0-0.41-0.1-0.89-0.31-1.43C43.97,129.27,42.2,122.64,40.49,114.59z M34.05,124.87c0.75-2.83,1.64-5.66,2.66-8.49
			c0.31,1.36,0.63,2.73,0.97,4.09c0.34,1.57,0.56,2.98,0.67,4.25C36.02,124.72,34.59,124.77,34.05,124.87z"/>
		<path class="st1" d="M69.85,107.66c0.83-0.2,1.39-0.89,1.69-2.08c0-0.59-0.45-0.89-1.34-0.89c0.1-0.5-0.15-0.74-0.74-0.74
			c-0.79-0.1-1.78,0-2.97,0.3c-1.62,0.43-2.63,0.66-3.02,0.69c-1.36,0.36-2.78,0.55-4.26,0.55c-1.49,0-2.81-0.2-3.97-0.59
			c-1.42,0.77-3.57,1.3-6.44,1.6c-3.27,0.3-5.44,0.63-6.49,1c-0.23,0.27-0.35,0.52-0.35,0.75c0,0.03,0.2,0.48,0.59,1.35
			c1.03,0.87,2.35,1.3,3.97,1.3c0.69,0,1.95-0.13,3.77-0.4c1.59-0.23,2.83-0.31,3.72-0.25c0.03,2.38-0.1,5.83-0.4,10.36
			c-0.3,4.73-0.45,8.18-0.45,10.36c0,1.36,0.03,2.64,0.1,3.87c0.07,0.96,0.41,1.83,1.04,2.6c0.63,0.78,1.42,1.18,2.38,1.22
			c0.5,0.03,0.83-0.22,0.99-0.74c0.1-0.33,0.13-0.81,0.1-1.44c-0.07-2.02-0.1-4.07-0.1-6.15c0-5.49,0.33-12.34,0.99-20.57
			C63.97,108.88,67.7,108.19,69.85,107.66z"/>
		<path class="st1" d="M85.27,109.98c-0.27-0.02-0.5-0.12-0.68-0.32c-0.18-0.2-0.33-0.31-0.45-0.34c-1.12-0.27-1.9-0.02-2.35,0.77
			c-1.39,3.02-2.75,6.61-4.08,10.78c-1.12,3.71-2.23,7.41-3.35,11.09c-0.82-3.08-1.62-6.17-2.4-9.28c-1-3.59-2.04-6.63-3.12-9.1
			c-1.21-0.91-2.05-1.36-2.54-1.36c-0.24,0-0.48,0.08-0.72,0.23c-0.27,0-0.6,0.38-1,1.13c1.48,3.2,2.96,7.86,4.44,13.99
			c1.57,6.43,2.94,11.05,4.12,13.86c0.66,0.45,1.21,0.68,1.63,0.68c0.36,0,0.68-0.15,0.95-0.45c0.78-2.02,1.6-5,2.45-8.92
			c0.87-4.1,1.63-7.05,2.26-8.83c2.17-6.04,3.85-10.16,5.03-12.36c0.15-0.3,0.23-0.6,0.23-0.91C85.67,110.22,85.54,110,85.27,109.98
			z"/>
		<path class="st1" d="M93.52,105.83c-0.03-0.08-0.03-0.36,0-0.84c0-0.4-0.68-1.19-2.4-1.08c-0.82,0.05-1.4,0.38-1.74,1.14
			c0.07,1,0.1,2.03,0.1,3.07c0,2.69-0.28,6.74-0.84,12.17c-0.56,5.42-0.84,9.5-0.84,12.23c0,1.57,0.07,3.05,0.2,4.46
			c0.14,1.4,0.94,2.15,2.4,2.23c1.02,0.04,1.69-0.5,1.99-1.63c-0.03-1-0.05-2.03-0.05-3.07c0-2.81,0.24-6.97,0.72-12.47
			c0.48-5.5,0.72-9.61,0.72-12.35c0-1.24-0.03-2.45-0.1-3.61C93.6,106.03,93.55,105.95,93.52,105.83z"/>
		<path class="st1" d="M116.36,109.12c-1.23-0.72-2.3-1.07-3.22-1.07c-0.24,0-0.44,0.02-0.61,0.05c-1.67,0.41-3.34,0.84-5.01,1.28
			c-1.91,0.51-3.5,1.09-4.76,1.74c-1.09,0.44-2.18,0.89-3.27,1.33c-1.16,0.58-1.76,1.36-1.79,2.35c-0.03,1.06,0.9,1.77,2.81,2.15
			c-0.2,2.97-0.34,4.59-0.41,4.86c-0.07,0.27-0.35,0.54-0.84,0.79c-0.49,0.26-0.76,0.54-0.79,0.84c-0.1,0.61,0.32,1.25,1.28,1.89
			c-0.31,2.35-0.31,5.01,0,7.98c0.1,1.02,0.54,1.94,1.33,2.76c0.78,0.82,1.65,1.35,2.61,1.58c3.03,0.78,6.62,1.11,10.74,0.97
			c0.54-0.03,0.96-0.28,1.25-0.74c0.29-0.46,0.38-0.96,0.28-1.51c-0.31-1.64-0.94-2.35-1.89-2.15c-0.2,0-0.46,0.13-0.77,0.38
			c-0.31,0.26-0.6,0.38-0.87,0.38c-3.96,0.17-6.73-0.31-8.34-1.43c-0.27-0.58-0.41-1.36-0.41-2.35c0-1.47,0.32-3.46,0.97-5.98
			c0.95-0.38,2.23-0.58,3.84-0.61c1.91-0.03,3.22-0.14,3.94-0.31c0.41,0.03,0.75-0.1,1.02-0.41c0.41-0.44,0.65-0.68,0.72-0.72
			c0.24-0.14,0.36-0.32,0.36-0.56c0-0.2-0.24-0.65-0.72-1.33c-0.68-0.41-1.5-0.61-2.46-0.61c-0.51,0-1.31,0.09-2.4,0.26
			c-1.09,0.17-1.89,0.26-2.4,0.26c-0.72,0-1.35-0.1-1.89-0.31c0.14-3.07,0.36-5.05,0.67-5.93c1.26-0.51,3.12-1.11,5.58-1.79
			s4.31-1.28,5.58-1.79c0.24-0.17,0.36-0.39,0.36-0.67c0-0.17-0.07-0.44-0.2-0.82C116.48,109.51,116.39,109.25,116.36,109.12z"/>
		<path class="st1" d="M140.61,105.23c-0.1-0.03-0.43-0.12-0.97-0.26c-0.41-0.1-0.77-0.15-1.07-0.15c-0.89,0-1.38,0.34-1.48,1.02
			c-1.09,9.17-1.89,16.03-2.4,20.56c-1.26-2.32-2.66-5.71-4.19-10.18c-1.6-4.67-2.95-8.05-4.04-10.13
			c-1.13-0.92-1.98-1.35-2.56-1.28c-1.23,0-1.86,0.38-1.89,1.13c-0.07,0.89-0.43,5.46-1.07,13.71c-0.41,5.42-0.61,9.94-0.61,13.55
			c0,2.08,0.05,4.07,0.15,5.98c0.03,0.58,0.07,1.14,0.1,1.69c0.1,0.68,0.37,1.09,0.82,1.23c0.14,0.07,0.46,0.22,0.97,0.46
			c0.38,0.21,0.68,0.31,0.92,0.31c0.27,0,0.53-0.12,0.77-0.36c0.61-0.38,0.9-1.06,0.87-2.05c-0.14-2.69-0.21-5.34-0.21-7.93
			c0-5.39,0.29-10.52,0.87-15.4c0.07-0.48,0.22-0.72,0.46-0.72c0.1,0,0.19,0.1,0.26,0.31c3.24,9.1,5.95,15.79,8.13,20.05
			c0.72,1.43,1.6,2.15,2.66,2.15c0.54,0,1.03-0.21,1.46-0.61c0.43-0.41,0.62-0.89,0.59-1.43c-0.07-1.16-0.1-2.34-0.1-3.53
			c0-3.65,0.29-8.2,0.87-13.66c0.44-4.6,0.9-9.19,1.38-13.76C141.17,105.61,140.95,105.37,140.61,105.23z"/>
		<path class="st1" d="M155.44,129.78c-2.15-1.26-4.28-2.52-6.39-3.79c0.92-1.43,3.02-3.84,6.29-7.21c2.79-2.9,4.67-5.4,5.63-7.52
			c-0.07-0.92-0.77-1.38-2.1-1.38c-0.48,0-0.92,0.09-1.33,0.26c-1.5,1.77-3.02,3.53-4.55,5.27c-1.81,2.08-3.41,3.75-4.81,5.01
			c0.07-2.73-0.15-6.41-0.67-11.05c-0.03-0.41-0.29-0.71-0.77-0.9c-0.48-0.19-0.94-0.35-1.38-0.49c-0.44,0.07-0.87,0.14-1.28,0.2
			c-0.55,0.14-0.79,0.41-0.72,0.82c0.48,2.66,0.72,5.8,0.72,9.41c0,1.19-0.03,2.98-0.1,5.34c-0.07,2.37-0.1,4.15-0.1,5.35
			c0,3.31,0.2,6.19,0.61,8.64c0.14,0.89,0.65,1.48,1.53,1.79c0.1,0.24,0.36,0.36,0.77,0.36c0.38,0,0.67-0.07,0.87-0.21
			c0.72-0.31,1.07-0.87,1.07-1.69c0-0.24-0.03-0.63-0.1-1.18s-0.1-0.95-0.1-1.23c-0.07-2.35-0.15-4.16-0.26-5.42
			c4.81,2.86,8.35,5.01,10.64,6.45c0.2,0.14,0.39,0.2,0.56,0.2c0.17,0,0.42-0.08,0.74-0.26c0.32-0.17,0.59-0.26,0.79-0.26
			c0.1,0,0.22,0.02,0.36,0.05c0.27-0.82,0.41-1.33,0.41-1.53c0-0.31-0.1-0.55-0.31-0.72C159.84,132.73,157.82,131.28,155.44,129.78z
			"/>
		<path class="st1" d="M180.07,116.84c-0.77-1.45-2.07-2.49-3.9-3.1c-2.33-0.77-3.77-1.38-4.31-1.84c-0.54-0.46-1.11-0.69-1.72-0.69
			c-1.07,0-2.2,0.59-3.39,1.78c-1.03,1-1.91,2.18-2.64,3.56c-1.68,3.25-2.53,6.3-2.53,9.13c0,2.56,0.75,4.65,2.24,6.26
			c2.22,2.37,4.42,3.56,6.6,3.56c0.5,0,0.99-0.06,1.49-0.17c4.13-0.96,7.33-3.98,9.59-9.07c0.38-0.84,0.57-1.78,0.57-2.81
			C182.08,121.6,181.41,119.4,180.07,116.84z M174.96,128.26c-1.57,2.11-3.2,3.16-4.88,3.16c-0.73,0-1.63-0.78-2.7-2.35
			c-0.77-1.15-1.15-2.54-1.15-4.19c0-2.41,0.67-4.19,2.01-5.34c0.08-0.08,0.17-0.12,0.29-0.12c0.15,0,0.48,0.17,0.98,0.52
			c0.5,0.34,0.88,0.46,1.15,0.34c0.42-0.15,1.01-0.67,1.78-1.55c0.69-0.77,1.26-1.15,1.72-1.15c0.15,0,0.32,0.04,0.52,0.12
			c1.22,0.54,1.97,2.2,2.24,4.99C177.1,124.41,176.45,126.27,174.96,128.26z"/>
		<path class="st1" d="M92.67,92.54c-0.91-0.1-1.82-0.17-2.73-0.22c-0.53-0.05-1.03,0.18-1.51,0.68c-0.48,0.5-0.72,1.04-0.72,1.62
			c0,0.91,0.43,1.77,1.29,2.59c0.86,0.81,1.77,1.25,2.73,1.29c1.15,0.1,2.02-0.16,2.62-0.75c0.6-0.6,0.68-1.76,0.25-3.48
			C94.37,93.35,93.72,92.78,92.67,92.54z"/>
	</g>
</g>
</svg>
