<?xml version="1.0" encoding="utf-8"?>
<!-- Generator: Adobe Illustrator 24.3.0, SVG Export Plug-In . SVG Version: 6.00 Build 0)  -->
<svg version="1.1" id="Layer_1" xmlns="http://www.w3.org/2000/svg" xmlns:xlink="http://www.w3.org/1999/xlink" x="0px" y="0px"
	 viewBox="0 0 276 276" style="enable-background:new 0 0 276 276;" xml:space="preserve">
<style type="text/css">
	.st0{fill:#16A901;}
	.st1{fill:#FFFFFF;}
</style>
<circle class="st0" cx="138" cy="138" r="138"/>
<g>
	<path class="st1" d="M161.33,174.92c-0.12,0.75-0.2,1.31-0.29,1.86c-0.85,5.17-1.7,10.34-2.55,15.5
		c-0.92,5.57-1.85,11.14-2.76,16.71c-0.64,3.91-1.25,7.83-1.86,11.74c-0.18,1.17-0.25,1.26-1.47,1.26c-6.52,0-13.03,0-19.55,0
		c-1.13,0-1.23-0.16-1.04-1.27c0.83-4.68,1.65-9.37,2.47-14.06c0.73-4.14,1.46-8.28,2.18-12.42c0.81-4.61,1.62-9.23,2.43-13.84
		c0.72-4.07,1.44-8.14,2.15-12.21c0.7-4,1.41-8,2.08-12c0.06-0.38-0.06-0.87-0.28-1.19c-2.82-4.1-5.45-8.32-7.79-12.72
		c-3.01-5.67-5.78-11.46-7.97-17.51c-1.69-4.68-3.2-9.42-4.77-14.13c-0.26-0.79-0.46-1.59-0.69-2.39c-0.1,0.01-0.19,0.02-0.29,0.03
		c0,0.51,0,1.02,0,1.53c-0.01,10.05-0.03,20.1-0.01,30.15c0.02,7.9-1.49,15.48-4.7,22.7c-3.23,7.28-8.03,13.31-14.56,17.9
		c-4.98,3.51-10.53,5.71-16.52,6.84c-4.86,0.92-9.75,1.05-14.64,0.48c-8.48-1-16.15-4.03-22.75-9.53
		c-5.43-4.52-9.49-10.09-12.31-16.57c-2.28-5.25-3.63-10.74-4.21-16.41c-0.21-2.08-0.32-4.17-0.33-6.26
		c-0.03-15.17-0.02-30.35-0.01-45.52c0-1.3,0-1.31,1.34-1.31c6.42-0.01,12.84,0,19.26,0c1.01,0,1.11,0.1,1.11,1.12
		c-0.03,10.63-0.08,21.26-0.11,31.88c-0.02,5.34-0.1,10.68,0.01,16.01c0.12,5.68,1.36,11.13,4.17,16.1
		c4.42,7.81,11.19,11.63,20.16,11.55c9.18-0.08,15.96-5.08,19.52-13.27c2.23-5.14,3.04-10.56,3.05-16.11
		c0.02-15.25,0.01-30.49,0.01-45.74c0-1.56,0-1.56,1.55-1.56c11.49,0,22.99,0,34.48,0c0.31,0,0.63,0.01,0.94,0.01
		c0.54,0.01,0.81,0.28,0.94,0.8c1.58,6.39,3.3,12.75,5.49,18.96c1.53,4.35,3.22,8.65,5.34,12.76c0.1,0.2,0.23,0.39,0.47,0.77
		c0.15-0.4,0.25-0.59,0.3-0.8c1.51-5.59,3.81-10.82,7.13-15.59c5.07-7.28,11.68-12.63,19.9-15.98c4.82-1.96,9.85-3.07,15.04-3.47
		c4.75-0.37,9.46-0.22,14.14,0.7c8.73,1.72,16.47,5.45,23.11,11.41c5.21,4.69,9.18,10.27,11.95,16.69
		c1.91,4.44,3.16,9.06,3.73,13.87c1.16,9.85-0.14,19.34-4.38,28.34c-4.62,9.81-11.81,17.22-21.47,22.16
		c-5.23,2.68-10.8,4.28-16.63,4.97c-4.64,0.55-9.27,0.45-13.87-0.3c-6.97-1.13-13.44-3.65-19.35-7.52
		c-2.19-1.43-4.27-3.02-6.41-4.54C161.98,175.36,161.74,175.2,161.33,174.92z M223.19,138.84c-0.07-5.92-1.3-11.66-4.42-16.92
		c-2.71-4.57-6.41-8.06-11.19-10.39c-4.14-2.02-8.53-2.73-13.1-2.52c-4.27,0.19-8.31,1.2-11.98,3.47
		c-5.16,3.19-8.51,7.9-11.01,13.29c-2.31,4.97-3.83,10.2-4.88,15.57c-0.54,2.78-0.95,5.59-1.42,8.39c-0.13,0.77-0.05,1.46,0.48,2.09
		c0.66,0.79,1.22,1.67,1.88,2.46c5.31,6.3,11.68,11.05,19.68,13.36c4.89,1.41,9.85,1.75,14.83,0.59c6.71-1.56,12-5.26,15.85-10.97
		C221.64,151.73,223.12,145.54,223.19,138.84z"/>
</g>
</svg>
